<svg xmlns="http://www.w3.org/2000/svg" viewBox="-92 118 598 558"><path d="M457.2 310.2L288 201.3c-.2-.1-.5-.3-.6-.4l-72-46.4c-5.1-3.3-11.7-3.3-16.8 0L-43.2 310.2c-5.5 3.6-8 10.2-6.1 16.5 1.9 6.3 7.5 10.5 14.1 10.5H9.9v9.4c0 7.2 5.9 13 13 13V572c-7.2 0-13 5.9-13 13v10.2h-34.3c-8.6 0-15.6 7-15.6 15.6v15.3c0 8.6 7 15.6 15.6 15.6h462.8c8.6 0 15.6-7 15.6-15.6v-15.3c0-8.6-7-15.6-15.6-15.6h-34.3V585c0-7.2-5.9-13-13-13V359.7c7.2 0 13-5.9 13-13v-9.4h45.2c6.6 0 12.2-4.2 14.1-10.5 1.8-6.4-.6-13-6.2-16.6zm-480.6 315v-13.3h460.8v13.3H-23.4zm258.7-53.1V359.7c7.2 0 13-5.9 13-13v-9.4h73.2v9.4c0 7.2 5.9 13 13 13v212.4c-7.2 0-13 5.9-13 13v10.2h-73.2v-10.2c0-7.2-5.8-13-13-13zm-16.6-220.7v228.9c0 4.6 3.7 8.3 8.3 8.3h4.8v6.7h-49.5v-6.7h4.8c4.6 0 8.3-3.7 8.3-8.3V351.4c0-4.6-3.7-8.3-8.3-8.3h-4.8v-5.9h49.5v5.9H227c-4.6 0-8.3 3.8-8.3 8.3zM79.5 572.1V359.7c7.2 0 13-5.9 13-13v-9.4h73.2v9.4c0 7.2 5.9 13 13 13v212.4c-7.2 0-13 5.9-13 13v10.2H92.5v-10.2c0-7.2-5.8-13-13-13zM63 351.4v228.9c0 4.6 3.7 8.3 8.3 8.3H76v6.7H26.5v-6.7h4.8c4.6 0 8.3-3.7 8.3-8.3v-229c0-4.6-3.7-8.3-8.3-8.3h-4.8v-5.9H76v5.9h-4.8c-4.5.1-8.2 3.9-8.2 8.4zm146.2-138.8l168 108.1H36.8l168-108.1c1.3-.8 3.1-.8 4.4 0zm165.3 138.8v228.9c0 4.6 3.7 8.3 8.3 8.3h4.8v6.7H338v-6.7h4.8c4.6 0 8.3-3.7 8.3-8.3V351.4c0-4.6-3.7-8.3-8.3-8.3H338v-5.9h49.5v5.9h-4.8c-4.5 0-8.2 3.8-8.2 8.3zM-29 320.7l236-151.8 87.4 56.3c.3.2.5.3.7.4L443 320.7h-35.2l-189.6-122c-6.8-4.4-15.6-4.4-22.4 0L6.2 320.7H-29z"/></svg>