<svg xmlns="http://www.w3.org/2000/svg" viewBox="-71 119 556 556"><path d="M206.9 598.8C95.8 598.8 5.4 508.4 5.4 397.3s90.4-201.5 201.5-201.5 201.5 90.4 201.5 201.5S318 598.8 206.9 598.8zm0-385c-101.2 0-183.5 82.3-183.5 183.5s82.3 183.5 183.5 183.5 183.5-82.3 183.5-183.5-82.3-183.5-183.5-183.5z"/><path d="M206.9 653.6c-68.5 0-132.8-26.7-181.3-75.1-48.4-48.4-75.1-112.8-75.1-181.3S-22.8 264.4 25.7 216c48.4-48.4 112.7-75 181.2-75 68.5 0 132.8 26.7 181.3 75.1 48.4 48.4 75.1 112.8 75.1 181.3s-26.7 132.8-75.1 181.3-112.8 74.9-181.3 74.9zm0-494.6c-63.7 0-123.5 24.8-168.5 69.8s-69.8 104.9-69.8 168.5 24.8 123.5 69.8 168.5 104.9 69.8 168.5 69.8c63.7 0 123.5-24.8 168.5-69.8s69.8-104.9 69.8-168.5-24.8-123.5-69.8-168.5c-45-45.1-104.8-69.8-168.5-69.8z"/><path d="M225.9 405.7H182c-5.5 0-10 4.5-10 10v56c0 5.5 4.5 10 10 10h43.9c21 0 38-17 38-38s-17-38-38-38zm0 56H192v-36h33.9c9.9 0 18 8.1 18 18s-8 18-18 18z"/><path d="M231 275.1V253c0-5.5-4.5-10-10-10s-10 4.5-10 10v22h-32v-22c0-5.5-4.5-10-10-10s-10 4.5-10 10v22h-38c-5.5 0-10 4.5-10 10v40c0 5.5 4.5 10 10 10h14v124h-14c-5.5 0-10 4.5-10 10v40c0 5.5 4.5 10 10 10h38v22c0 5.5 4.5 10 10 10s10-4.5 10-10v-22h32v22c0 5.5 4.5 10 10 10s10-4.5 10-10v-22.1c40-1.8 72-34.8 72-75.2 0-17.2-5.7-33.4-16.2-46.7 10.5-13.2 16.2-29.5 16.2-46.7 0-40.4-32-73.5-72-75.2zM227.7 499H131v-20h14c5.5 0 10-4.5 10-10V325c0-5.5-4.5-10-10-10h-14v-20h96.7c30.5 0 55.3 24.8 55.3 55.3 0 15-5.9 29-16.7 39.5-1.9 1.9-3 4.5-3 7.1 0 2.7 1.1 5.3 3 7.1 10.7 10.5 16.7 24.6 16.7 39.5 0 30.7-24.8 55.5-55.3 55.5z"/><path d="M182 388.3h43.9c21 0 38-17 38-38s-17-38-38-38H182c-5.5 0-10 4.5-10 10v56c0 5.6 4.5 10 10 10zm10-56h33.9c9.9 0 18 8.1 18 18s-8.1 18-18 18H192v-36z"/></svg>