<svg xmlns="http://www.w3.org/2000/svg" viewBox="0 0 841.9 595.3"><path d="M419.9 205.1c-40.3 0-73.2 32.8-73.2 73.2 0 40.3 32.8 73.2 73.2 73.2s73.2-32.8 73.2-73.2c0-40.4-32.8-73.2-73.2-73.2zm0 138.1c-35.8 0-64.9-29.1-64.9-64.9 0-35.8 29.1-64.9 64.9-64.9s64.9 29.1 64.9 64.9c0 35.8-29.1 64.9-64.9 64.9zm0 14.5c-2.3 0-4.1 1.9-4.1 4.1v21.8c0 2.3 1.9 4.1 4.1 4.1s4.1-1.9 4.1-4.1v-21.8c.1-2.2-1.8-4.1-4.1-4.1zm0-158.9c2.3 0 4.1-1.9 4.1-4.1v-21.8c0-2.3-1.9-4.1-4.1-4.1s-4.1 1.9-4.1 4.1v21.8c0 2.3 1.9 4.1 4.1 4.1zm-83.5 75.3h-19.8c-2.3 0-4.1 1.9-4.1 4.1s1.9 4.1 4.1 4.1h19.8c2.3 0 4.1-1.9 4.1-4.1s-1.8-4.1-4.1-4.1zm188.9 0h-21.8c-2.3 0-4.1 1.9-4.1 4.1s1.9 4.1 4.1 4.1h21.8c2.3 0 4.1-1.9 4.1-4.1s-1.8-4.1-4.1-4.1z"/><path d="M449 270.5h-16.6l9.7-42.2c.4-1.9-.5-3.8-2.2-4.6-1.7-.9-3.8-.5-5 1l-47.2 54.5c-1.1 1.2-1.3 3-.6 4.4.7 1.5 2.1 2.4 3.8 2.4h16.6l-9.7 42.2c-.4 1.9.5 3.8 2.2 4.6.6.3 1.2.4 1.9.4 1.2 0 2.3-.5 3.1-1.4l47.2-54.5c1.1-1.2 1.3-3 .6-4.4-.7-1.4-2.2-2.4-3.8-2.4zm-32.3 12.3c.3-1.2 0-2.5-.8-3.5s-2-1.6-3.2-1.6H400l30.4-35.1-7.2 31c-.3 1.2 0 2.5.8 3.5s2 1.6 3.2 1.6H440l-30.4 35.1 7.1-31zm65.3 51.7c-.8-.8-1.8-1.2-2.9-1.2s-2.1.4-2.9 1.2-1.2 1.8-1.2 2.9.4 2.1 1.2 2.9l5.4 5.4c.8.8 1.8 1.2 2.9 1.2 1.1 0 2.1-.4 2.9-1.2 1.6-1.6 1.6-4.2 0-5.8l-5.4-5.4zM357.9 222.1c.8.8 1.8 1.2 2.9 1.2 1.1 0 2.1-.4 2.9-1.2.8-.8 1.2-1.8 1.2-2.9s-.4-2.1-1.2-2.9l-5.3-5.2c-1.6-1.6-4.3-1.8-5.9-.3-.8.8-1.3 1.8-1.3 3 0 1.1.4 2.2 1.2 3l5.5 5.3zm3 111.1c-1.1 0-2.1.4-2.9 1.2l-5.4 5.4c-1.6 1.6-1.6 4.2 0 5.8.8.8 1.8 1.2 2.9 1.2 1.1 0 2.1-.4 2.9-1.2l5.4-5.4c.8-.8 1.2-1.8 1.2-2.9 0-1.1-.4-2.1-1.2-2.9-.8-.7-1.8-1.2-2.9-1.2zM479 223.3c1.1 0 2.1-.4 2.9-1.2l5.4-5.4c1.6-1.6 1.6-4.2 0-5.8-1.6-1.6-4.2-1.6-5.8 0l-5.4 5.4c-.8.8-1.2 1.8-1.2 2.9s.4 2.1 1.2 2.9c.8.8 1.8 1.2 2.9 1.2z"/></svg>