<svg xmlns="http://www.w3.org/2000/svg" viewBox="-49 117 512 560"><path d="M365.6 368.3L283.8 266v-82.3c0-23.5-19.1-42.7-42.7-42.7H70.5c-23.5 0-42.7 19.1-42.7 42.7v307.2c0 23.5 19.1 42.7 42.7 42.7h76.8V556c0 53.5 43.5 97 97 97h133.4c4.7 0 8.5-3.8 8.5-8.5V427c0-21.3-7.3-42.1-20.6-58.7zM241.1 158.1c14.1 0 25.6 11.5 25.6 25.6v223.8l-34.1-36.3V158.1h8.5zm-25.6 195l-14.6-15.5c-3.2-3.4-6.9-6.2-11-8.2V158.1h25.6v195zM44.9 490.9V183.7c0-14.1 11.5-25.6 25.6-25.6h102.4v167.1c-10.5-.2-20.2 3.6-27.7 10.7-.1.1-.8.7-.9.8-14.6 14.6-15.6 37.6-2.3 53.4l30.8 36.4v89.9H70.5c-14.1.1-25.6-11.4-25.6-25.5zm171.4 25.6h-26.4v-69.8l25.6 30.2v26.4c0 4.5.3 8.8.8 13.2zm152.8 119.4H244.3c-44.1 0-80-35.9-80-80v-22.4h55.3c9.6 34.5 35.2 63.4 69.7 76.3l6-16c-37.5-14.1-62.7-50.4-62.7-90.5v-29.5c0-2-.7-4-2-5.5l-75.5-89.1c-7.6-9-7-22.1 1.7-30.8 4.4-4.1 10-6.2 16-6.1 6 .2 11.6 2.7 15.7 7l114.7 121.9 12.4-11.7-31.8-33.8V293.3l68.5 85.6c10.9 13.6 16.8 30.6 16.8 48v209z"/><path d="M70.5 183.7h17.1v110.9H70.5zm42.6 0h17.1V252h-17.1zm17.1 238.9H79c-4.7 0-8.5 3.8-8.5 8.5v51.2c0 4.7 3.8 8.5 8.5 8.5h51.2c4.7 0 8.5-3.8 8.5-8.5v-51.2c0-4.7-3.8-8.5-8.5-8.5zm-8.5 51.2H87.5v-34.1h34.1v34.1z"/></svg>