<svg xmlns="http://www.w3.org/2000/svg" viewBox="-49 141 512 512"><path d="M239 173H47c-4.4 0-8 3.6-8 8v336c0 4.4 3.6 8 8 8h8v11.8c-.1 35.3 11.8 69.6 33.8 97.2 2.8 3.5 7.8 4 11.2 1.2s4-7.8 1.2-11.2c-19.7-24.8-30.3-55.6-30.2-87.2V525h32v54.7c0 4.4 3.6 8 8 8s8-3.6 8-8v-94.6c0-8.8 7.2-16 16-16s16 7.2 16 16v70.5c0 2.1.8 4.1 2.3 5.6l3.7 3.7c16.7 17.1 26 40.1 26 64 0 4.4 3.6 8 8 8s8-3.6 8-8c0-17.5-4.3-34.8-12.4-50.3 11.4-15.7 18.3-34.3 20-53.7H239c4.4 0 8-3.6 8-8v-44.7L404.7 314c3.1-3.1 3.1-8.2 0-11.3l-120-119.4c-3.1-3.1-8.2-3.1-11.3 0L247 209.8V181c0-4.4-3.6-8-8-8zm-61.8 391c-2.7-3.6-5.7-7.1-8.8-10.4l-1.4-1.4V525h23.5c-1.4 13.9-5.9 27.2-13.3 39zm53.8-55h-64v-23.9c.2-17.6-13.9-32.1-31.6-32.2-14.7-.2-27.7 9.8-31.3 24.1H87v-32c0-4.4-3.6-8-8-8s-8 3.6-8 8v40c0 4.4 3.6 8 8 8h24v16H55V189h176v320zm48-308.7l108.7 108.1L247 449.6v-25.3l109.7-109.7c3.1-3.1 3.1-8.2 0-11.3l-16-16c-3.2-3.1-8.2-3-11.3.2-3 3.1-3 8 0 11.1l10.3 10.3-92.7 92.8V280.3l32-32 10.3 10.3c3.2 3.1 8.2 3 11.3-.2 3-3.1 3-8 0-11.1l-16-16c-3.1-3.1-8.2-3.1-11.3 0L247 257.7v-25.2l32-32.2z"/><path d="M143 413c39.8 0 72-32.2 72-72s-32.2-72-72-72-72 32.2-72 72c0 39.7 32.3 72 72 72zm0-16c-15 0-29.4-6.1-39.9-16.8 17.6 3.6 35.4-5.1 43.4-21.2 5.2 12.9 15.9 22.9 29.1 27.4-9.5 6.9-20.9 10.6-32.6 10.6zm56-56c0 11.4-3.5 22.5-10 31.8-17.6-1-31-16-30.1-33.6.9-16.2 13.8-29.2 30.1-30.1 6.5 9.4 10 20.5 10 31.9zm-56-56c11.7 0 23.1 3.7 32.6 10.6-13.2 4.5-23.9 14.5-29.1 27.4-8-16.1-25.8-24.8-43.4-21.2C113.6 291.1 128 285 143 285zm-32 32c13.3 0 24 10.7 24 24s-10.7 24-24 24-24-10.7-24-24 10.7-24 24-24zm96 120c-4.4 0-8 3.6-8 8v32h-8c-4.4 0-8 3.6-8 8s3.6 8 8 8h16c4.4 0 8-3.6 8-8v-40c0-4.4-3.6-8-8-8z"/></svg>