<?xml version="1.0" encoding="utf-8"?>
<!-- Generator: Adobe Illustrator 21.0.0, SVG Export Plug-In . SVG Version: 6.00 Build 0)  -->
<svg version="1.1" id="Layer_1" xmlns="http://www.w3.org/2000/svg" xmlns:xlink="http://www.w3.org/1999/xlink" x="0px" y="0px"
	 viewBox="0 0 841.9 595.3" style="enable-background:new 0 0 841.9 595.3;" xml:space="preserve">
<style type="text/css">
	.st0{fill:#010101;}
</style>
<path class="st0" d="M499.5,293.8c0-11-6.1-20.8-15.8-25.9c1.2-6.7-0.3-13.5-4.4-19.2c-4.2-5.9-10.4-9.8-17.4-11
	c-0.5-4.8-2.5-9.3-5.8-13c-4.4-4.8-10.8-7.6-17.4-7.6c-7.9,0-14.9,3.9-19.1,9.8c-4.2-5.9-11.2-9.8-19.1-9.8c-6.6,0-13,2.8-17.4,7.6
	c-3.4,3.7-5.4,8.2-5.8,13c-7.1,1.2-13.3,5.1-17.4,11c-4,5.7-5.5,12.6-4.4,19.2c-9.7,5.1-15.8,14.9-15.8,25.9
	c0,9.6,4.7,18.4,12.5,23.9c-4.5,7.1-5.2,15.6-1.7,23.6c4.3,9.8,13.8,16.2,24.4,16.2c0.8,0,1.6,0,2.5-0.1c0.7,4.4,2.6,8.5,5.6,11.9
	c4.4,4.9,10.8,7.7,17.5,7.7c7.9,0,14.9-3.9,19.1-9.8c4.2,5.9,11.2,9.8,19.1,9.8c6.7,0,13-2.8,17.5-7.7c3-3.3,5-7.5,5.6-11.9
	c0.8,0.1,1.7,0.1,2.5,0.1c0,0,0,0,0,0c10.5,0,20.1-6.4,24.4-16.2c3.5-8,2.8-16.6-1.7-23.6C494.8,312.2,499.5,303.4,499.5,293.8z
	 M415.4,354.1c0,7.9-6.7,14.4-14.9,14.4c-4.3,0-8.4-1.8-11.2-4.9c-2.1-2.3-3.4-5.2-3.6-8.2c7.6-3,9.5-8.1,11-12
	c1.2-3.2,1.9-4.9,5.4-5.8c2.2-0.6,3.6-2.9,3-5.1c-0.6-2.2-2.9-3.6-5.1-3c-7.7,2.1-9.6,7.2-11.1,11c-1.4,3.8-2.4,6.3-8.4,7.9
	c0,0,0,0,0,0c0,0,0,0,0,0c-1.8,0.5-3.6,0.8-5.4,0.8c-7.2,0-13.7-4.4-16.7-11.1c-2.8-6.5-1.6-13.4,3.3-18.6c0.9-1,1.3-2.3,1.1-3.7
	c-0.2-1.3-1.1-2.4-2.3-3c-7.5-3.6-12.1-10.8-12.1-18.9c0-8.7,5.4-16.4,13.8-19.6c2.1-0.8,3.2-3.1,2.5-5.3
	c-1.7-5.2-0.9-10.9,2.3-15.4c3.4-4.8,8.8-7.6,14.8-7.8c7.2,0,8.7,2.9,10.9,6.8c2,3.6,4.7,8.5,12,8.5c2.3,0,4.2-1.9,4.2-4.2
	c0-2.3-1.9-4.2-4.2-4.2c-2.2,0-2.7-0.7-4.7-4.2c-2.1-3.9-5.2-9.5-14-10.8c0.4-2.7,1.6-5.2,3.5-7.2c2.8-3.1,6.9-4.9,11.2-4.9
	c8.2,0,14.9,6.4,14.9,14.4v56.9c-9.9-1-12.3-5.5-15.4-11c-3-5.4-6.6-12.2-17.7-13.4c-2.3-0.2-4.4,1.4-4.6,3.7
	c-0.2,2.3,1.4,4.4,3.7,4.6c6.7,0.7,8.5,4,11.2,9c1,1.8,2,3.7,3.4,5.6c-2.2,2.3-5.6,4.6-9.3,6.5c-2.1,1-2.9,3.6-1.9,5.6
	c0.7,1.5,2.2,2.3,3.8,2.3c0.6,0,1.3-0.1,1.9-0.4c4.7-2.3,8.8-5.2,11.7-8.2c3.2,2,7.4,3.5,13.3,4L415.4,354.1L415.4,354.1z
	 M478.9,312.6c-1.2,0.6-2.1,1.7-2.3,3c-0.2,1.3,0.1,2.7,1.1,3.7c4.9,5.2,6.1,12.2,3.3,18.6c-2.9,6.8-9.5,11.1-16.7,11.1c0,0,0,0,0,0
	c-1.8,0-3.6-0.3-5.4-0.8c0,0,0,0,0,0c0,0,0,0,0,0c-6-1.6-7-4.1-8.4-7.9c-1.4-3.8-3.4-8.9-11.1-11c-2.2-0.6-4.5,0.7-5.1,3
	c-0.6,2.2,0.7,4.5,3,5.1c3.5,0.9,4.1,2.6,5.4,5.8c1.5,3.9,3.4,9,11,12c-0.3,3-1.5,5.8-3.6,8.2c-2.8,3.1-6.9,4.9-11.2,4.9
	c-8.2,0-14.9-6.4-14.9-14.4V324c0-7.6,4-11.3,7.7-12.3c4.6-1.2,9.5,1.2,12.3,6.1c1.2,2,3.7,2.7,5.7,1.5c2-1.2,2.7-3.7,1.5-5.7
	c-4.8-8.2-13.5-12.3-21.8-10.1c-2,0.5-3.9,1.4-5.5,2.6V279c8.8,0.7,11.5,4,14.7,8c2.9,3.5,6.1,7.5,13.1,9.7c0.4,0.1,0.9,0.2,1.3,0.2
	c1.8,0,3.4-1.1,4-2.9c0.7-2.2-0.5-4.6-2.7-5.3c-4.6-1.5-6.6-3.9-9.2-7c-3.9-4.8-8.3-10.1-21.2-11.1v-30.7c0-7.9,6.7-14.4,14.9-14.4
	c4.3,0,8.4,1.8,11.2,4.9c1.9,2.1,3.1,4.6,3.5,7.2c-8.8,1.4-11.9,7-14,10.8c-1.9,3.5-2.5,4.2-4.7,4.2c-2.3,0-4.2,1.9-4.2,4.2
	c0,2.3,1.9,4.2,4.2,4.2c7.3,0,10-4.9,12-8.5c2.2-3.9,3.8-6.8,10.9-6.8c6,0.1,11.4,3,14.8,7.8c3.2,4.6,4.1,10.2,2.3,15.4
	c-0.7,2.1,0.4,4.5,2.5,5.3c8.4,3.2,13.8,10.9,13.8,19.6C491.1,301.8,486.4,309,478.9,312.6z"/>
<path class="st0" d="M464.9,290L464.9,290c-2.4,0-4.3,1.9-4.3,4.2c0,2.3,1.9,4.2,4.2,4.2h0.1c2.3,0,4.2-1.9,4.2-4.2
	C469.1,291.9,467.2,290,464.9,290z"/>
<path class="st0" d="M376.5,305.4c-0.1,0-0.1,0-0.2,0c-2.3,0.5-3.7,2.8-3.2,5c0.4,1.9,2.2,3.3,4.1,3.3c0.3,0,0.6,0,0.9-0.1
	c2.3-0.5,3.7-2.7,3.3-4.9C381,306.4,378.8,305,376.5,305.4z"/>
<path class="st0" d="M419.6,206.2c2.3,0,4.2-1.9,4.2-4.2v-8.4c0-2.3-1.9-4.2-4.2-4.2c-2.3,0-4.2,1.9-4.2,4.2v8.4
	C415.4,204.3,417.3,206.2,419.6,206.2z"/>
<path class="st0" d="M368.4,216.8c0.8,1.3,2.2,2.1,3.6,2.1c0.7,0,1.4-0.2,2.1-0.6c2-1.2,2.7-3.7,1.5-5.7l-4.2-7.3
	c-1.2-2-3.7-2.7-5.7-1.5c-2,1.2-2.7,3.7-1.5,5.7L368.4,216.8z"/>
<path class="st0" d="M327.9,248.9l7.3,4.2c0.7,0.4,1.4,0.6,2.1,0.6c1.5,0,2.9-0.8,3.6-2.1c1.2-2,0.5-4.6-1.5-5.7l-7.3-4.2
	c-2-1.2-4.6-0.5-5.7,1.5C325.2,245.2,325.9,247.8,327.9,248.9z"/>
<path class="st0" d="M328.8,297c0-2.3-1.9-4.2-4.2-4.2h-8.4c-2.3,0-4.2,1.9-4.2,4.2c0,2.3,1.9,4.2,4.2,4.2h8.4
	C326.9,301.2,328.8,299.3,328.8,297z"/>
<path class="st0" d="M335.2,340.9l-7.3,4.2c-2,1.2-2.7,3.7-1.5,5.7c0.8,1.3,2.2,2.1,3.6,2.1c0.7,0,1.4-0.2,2.1-0.6l7.3-4.2
	c2-1.2,2.7-3.7,1.5-5.7C339.8,340.4,337.2,339.7,335.2,340.9z"/>
<path class="st0" d="M374.2,375.7c-2-1.2-4.6-0.5-5.7,1.5l-4.2,7.3c-1.2,2-0.5,4.6,1.5,5.7c0.7,0.4,1.4,0.6,2.1,0.6
	c1.5,0,2.9-0.8,3.6-2.1l4.2-7.3C376.9,379.4,376.2,376.8,374.2,375.7z"/>
<path class="st0" d="M419.6,387.8c-2.3,0-4.2,1.9-4.2,4.2v8.4c0,2.3,1.9,4.2,4.2,4.2c2.3,0,4.2-1.9,4.2-4.2V392
	C423.8,389.7,421.9,387.8,419.6,387.8z"/>
<path class="st0" d="M470.8,377.2c-1.2-2-3.7-2.7-5.7-1.5c-2,1.2-2.7,3.7-1.5,5.7l4.2,7.3c0.8,1.3,2.2,2.1,3.6,2.1
	c0.7,0,1.4-0.2,2.1-0.6c2-1.2,2.7-3.7,1.5-5.7L470.8,377.2z"/>
<path class="st0" d="M511.3,345.1l-7.3-4.2c-2-1.2-4.6-0.5-5.7,1.5c-1.2,2-0.5,4.6,1.5,5.7l7.3,4.2c0.7,0.4,1.4,0.6,2.1,0.6
	c1.5,0,2.9-0.8,3.6-2.1C514,348.8,513.3,346.2,511.3,345.1z"/>
<path class="st0" d="M523,292.8h-8.4c-2.3,0-4.2,1.9-4.2,4.2c0,2.3,1.9,4.2,4.2,4.2h8.4c2.3,0,4.2-1.9,4.2-4.2
	S525.4,292.8,523,292.8z"/>
<path class="st0" d="M501.9,253.7c0.7,0,1.4-0.2,2.1-0.6l7.3-4.2c2-1.2,2.7-3.7,1.5-5.7c-1.2-2-3.7-2.7-5.7-1.5l-7.3,4.2
	c-2,1.2-2.7,3.7-1.5,5.7C499,252.9,500.4,253.7,501.9,253.7z"/>
<path class="st0" d="M465,218.3c0.7,0.4,1.4,0.6,2.1,0.6c1.5,0,2.9-0.8,3.6-2.1l4.2-7.3c1.2-2,0.5-4.6-1.5-5.7
	c-2-1.2-4.6-0.5-5.7,1.5l-4.2,7.3C462.3,214.6,463,217.2,465,218.3z"/>
</svg>
