<?xml version="1.0" encoding="utf-8"?>
<!-- Generator: Adobe Illustrator 21.0.0, SVG Export Plug-In . SVG Version: 6.00 Build 0)  -->
<svg version="1.1" id="Layer_1" xmlns="http://www.w3.org/2000/svg" xmlns:xlink="http://www.w3.org/1999/xlink" x="0px" y="0px"
	 viewBox="0 0 850.4 1133.9" style="enable-background:new 0 0 850.4 1133.9;" xml:space="preserve">
<g>
	<path d="M595,455.9l24,0l-0.1-75.9l-75.9-0.1l0,24l35,0.1l-46.9,46.9c-21.1-17.3-47.3-26.7-74.9-26.7c-18.8,0-37,4.4-53.4,12.6
		c-16-8.1-34.1-12.6-53.2-12.6c-65.4,0-118.6,53.2-118.6,118.6c0,61.3,46.8,111.9,106.6,118v38.1h-33.3v24h33.3v33.1h24v-33.1h33.3
		v-24h-33.3v-38.1c14.7-1.5,28.6-5.7,41.2-12c16.3,8.3,34.5,12.6,53.4,12.6c31.7,0,61.5-12.3,83.9-34.7
		c22.4-22.4,34.7-52.2,34.7-83.9c0-27.6-9.4-53.8-26.7-74.9l46.9-46.9L595,455.9z M349.6,637.3c-52.2,0-94.6-42.4-94.6-94.6
		c0-52.2,42.4-94.6,94.6-94.6c10.2,0,20.1,1.6,29.3,4.6c-2.2,1.9-4.4,4-6.6,6.1c-46.2,46.2-46.2,121.5,0,167.7
		c2.1,2.1,4.3,4.1,6.6,6.1C369.6,635.6,359.8,637.3,349.6,637.3L349.6,637.3z M444.2,542.7c0,32.4-16.4,61.1-41.3,78.1
		c-4.8-3.3-9.3-7-13.5-11.3c-36.9-36.9-36.9-96.9,0-133.8c4.2-4.2,8.7-8,13.5-11.3C427.8,481.6,444.2,510.3,444.2,542.7L444.2,542.7
		z M523.1,609.6c-17.9,17.9-41.6,27.7-66.9,27.7c-10.1,0-20-1.6-29.4-4.6c25.3-21.8,41.4-54,41.4-89.9c0-35.9-16.1-68.2-41.4-89.9
		c9.4-3.1,19.3-4.6,29.4-4.6c25.3,0,49,9.8,66.9,27.7c17.9,17.9,27.7,41.6,27.7,66.9C550.8,568,540.9,591.7,523.1,609.6L523.1,609.6
		z M523.1,609.6"/>
</g>
</svg>
