<?xml version="1.0" encoding="utf-8"?>
<!-- Generator: Adobe Illustrator 21.0.0, SVG Export Plug-In . SVG Version: 6.00 Build 0)  -->
<svg version="1.1" id="Capa_1" xmlns="http://www.w3.org/2000/svg" xmlns:xlink="http://www.w3.org/1999/xlink" x="0px" y="0px"
	 viewBox="-49 141 512 512" style="enable-background:new -49 141 512 512;" xml:space="preserve">
<path d="M295.6,327.3c-2.1-5.9-6.3-10.4-11.9-12.8c-5.7-2.5-12.2-2.4-18.2,0.3c-5.4,2.3-9.4,6.8-11.4,12.5c-2.1,6-1.6,12.6,1.3,18.1
	l0.3,0.5c0.5,0.9,2,3.7,1.6,4.3c-2.6,4.4-5.6,8.8-9.5,14.4c-0.3-0.9-0.5-1.5-0.7-2.1c-0.1-0.3-0.2-0.5-0.2-0.7
	c-1.5-4.4-3-8.8-4.4-13.3c-3.9-11.6-8-23.7-11.7-35.6c-1.8-5.7-4.5-9.4-12-9c-10.4,0.5-21.1,0.3-31.4,0.2l-3.1-0.1
	c-4.5,0-7.1,1.8-8.5,6.1c-4.1,12.1-8.2,24.1-12.2,36.1c-5.1,15-10.4,30.5-15.5,45.8c-3.6,10.7-7.1,21.6-10.5,32.2
	c-2.2,6.9-4.5,13.8-6.7,20.8c-2,6.1-4,12.1-6,18.1c-2.2,6.7-4.5,13.5-6.7,20.3c-1.1,3.5-1.2,5.7-0.1,7.3c1.1,1.6,3.2,2.3,7,2.3
	c2.1,0,4.3,0,6.6,0c0.8,0,1.6,0,2.4,0l0,7.2c0,2.7,2.2,4.8,4.9,4.8h0.4c2.6,0,4.8-2.1,4.9-4.8c0-2.2,0.1-5,0.1-6.8h117.4
	c0,2.1,0.1,4.8,0.1,6.8c0.1,2.6,2.2,4.8,4.9,4.8c2.6,0,4.8-2.1,4.9-4.8c0-2.1,0.1-5,0.1-7.3c1.1,0,2.1,0,3,0c2.5,0,4.7,0,6.9,0
	c3.2-0.1,5.2-0.9,6.3-2.4c1-1.5,1.1-3.5,0.1-6.2c-9.9-30.2-33.5-99.5-35.7-105.7c1.6-2.6,10.1-16.3,11.3-18.6
	c1.8-3.4,3.9-4.3,8.2-3.5c7.5,1.4,15-1.3,20.1-7.2C296.8,343,298.3,334.8,295.6,327.3z M151.3,417.8c0.3-0.6,2.3-1.3,4.1-1.3
	c7.7-0.1,20.9-0.1,28.1-0.1c0,0,0,0,0,0c1.3,0,2.5-0.5,3.5-1.4c0.9-0.9,1.4-2.2,1.4-3.5l0-0.6c-0.1-2.7-2.2-4.7-4.8-4.7
	c-5.4,0-15.2,0-21,0c-1.9,0-3.7,0-5.7,0H155c0.3-1.1,0.6-2.1,0.9-3.1c0.9-3.3,1.7-6.5,3-9.3c0.5-1.1,2.8-2.5,4.4-2.5
	c5.7-0.3,15.5-0.4,20.8-0.4c1.3,0,2.5-0.5,3.5-1.5c0.9-1,1.4-2.2,1.3-3.5l0-0.4c-0.1-2.6-2.2-4.6-4.8-4.7
	c-5.1-0.1-14.2-0.1-20.8-0.2l4.7-15c4.6,0,11.5-0.1,15.4-0.1c1.3,0,2.5-0.5,3.4-1.5c0.9-0.9,1.4-2.2,1.4-3.5l0-0.6
	c0-2.6-2.2-4.8-4.8-4.8l-11.7,0c0.3-1,0.6-2,0.9-2.9c1.1-3.6,2.2-7,3.5-10.3c0.2-0.6,1.8-1.4,2.9-1.6c1-0.1,2.6-0.2,4.7-0.3
	c2.6-0.1,4.7-2.1,4.8-4.7l0-0.9c0-1.3-0.5-2.6-1.4-3.6c-1-0.9-2.3-1.5-3.6-1.4c-0.4,0-0.9,0-1.4,0.1c-0.6,0-1.2,0.1-1.9,0.1
	c0.3-1,0.7-2.1,1-3.1c1.2-3.8,2.4-7.4,3.8-10.8c0.2-0.4,1.8-1.1,3.1-1.1c10.3-0.2,19.6-0.3,29,0.1c1.3,0,3.5,1.8,4,3.2
	c5.8,16.5,16.6,54.5,17.9,59.1c-2.8,3.9-25.7,35.9-37.1,51.7c-1,1.4-3.1,2.6-4.4,2.6c-14,0.2-28.2,0.2-42,0.1l-7.7,0
	c-0.3,0-0.7-0.1-1.3-0.3c-0.1,0-0.1,0-0.2-0.1c0.4-1,0.7-2,1.1-3C148.6,424.4,149.7,421,151.3,417.8z M215,431
	c5.2-7.3,9.9-13.9,14.6-20.6c4.8-6.8,9.6-13.6,15-21.2c2.5,7.7,4.9,14.6,7.3,21.3c2.4,6.8,4.6,13.3,6.9,20.4H215z M276,482H129.3
	l13.2-40.1l120.2-0.1L276,482z M286.7,334.7c0.1,2.9-1.1,5.9-3.3,8.1c-2.2,2.3-5.3,3.7-8.4,3.7c-6.4,0.1-11.9-5.2-12-11.5
	c0-3.3,1.1-6.3,3.2-8.5c2.2-2.2,5.3-3.5,8.8-3.5c0,0,0.1,0,0.1,0C281.5,323.1,286.5,328.1,286.7,334.7z"/>
</svg>
