<?xml version="1.0" encoding="utf-8"?>
<!-- Generator: Adobe Illustrator 21.0.0, SVG Export Plug-In . SVG Version: 6.00 Build 0)  -->
<svg version="1.1" id="Layer_1" xmlns="http://www.w3.org/2000/svg" xmlns:xlink="http://www.w3.org/1999/xlink" x="0px" y="0px"
	 viewBox="0 0 841.9 595.3" style="enable-background:new 0 0 841.9 595.3;" xml:space="preserve">
<g>
	<path d="M420.9,339.7c6.5,0,12.5-2.5,17.1-7.1c1.4-1.4,1.4-3.8,0-5.3c-1.4-1.4-3.8-1.4-5.3,0c-6.5,6.5-17.1,6.5-23.6,0
		c-0.7-0.7-1.6-1.1-2.6-1.1c0,0,0,0,0,0c-1,0-1.9,0.4-2.6,1.1c-1.4,1.4-1.4,3.8,0,5.3C408.4,337.2,414.5,339.7,420.9,339.7z"/>
	<path d="M499.5,361.8c-8.1-9-8.4-31.9-7.4-55.3c3.7-3.5,5.8-8.3,5.8-13.4c0-4.4-1.6-8.7-4.5-12.1c1.1-23.2,1.9-40-5.9-55.3
		c-5.3-10.2-13.7-18.8-25.2-25.4c-13.4-7.7-28.7-11.5-44.2-10.9c-13.5,0.5-26.3,6.8-35.1,17.4c-11.4,0.7-21.6,6.8-27.1,16.4
		c-0.5,0.8-0.9,1.7-1.4,2.5c-7.8,15.3-7,32.1-5.9,55.3c-2.9,3.4-4.5,7.6-4.5,12.1c0,5,2.1,9.9,5.8,13.4c0.9,23.4,0.7,46.3-7.4,55.3
		c-0.8,0.9-1.1,2.2-0.9,3.4s1.1,2.2,2.3,2.6c8.3,3.1,17,4.7,26.1,4.7c7.1,0,14.4-1,21.5-2.9c9.9-2.7,16.9-6.4,19.5-7.9
		c6.7,1.1,13.5,1.1,20.1,0c2.6,1.5,9.6,5.2,19.5,7.9c7.1,1.9,14.3,2.9,21.4,2.9c9.1,0,17.9-1.6,26.2-4.7c1.1-0.4,2-1.4,2.3-2.6
		C500.7,363.9,500.4,362.7,499.5,361.8z M357.4,310.8c0.8,0.2,1.6,0.4,2.4,0.5c3.9,21.8,19.3,39.9,40.1,47.4
		c-9.7,4.1-28.4,9.6-48.8,3.6C356.4,352.9,358.3,337.9,357.4,310.8z M358.9,303.5c-4.4-1.5-7.4-5.7-7.4-10.4c0-4.7,2.9-8.8,7.3-10.4
		v17.5C358.8,301.3,358.8,302.4,358.9,303.5z M483,303.5c0.1-1.1,0.1-2.2,0.1-3.2v-17.5c4.4,1.6,7.3,5.7,7.3,10.4
		C490.4,297.8,487.5,302,483,303.5z M486.1,275.9c-1-0.4-2-0.7-3-0.9v-3.3c0-2-1.7-3.7-3.7-3.7c-2,0-3.7,1.7-3.7,3.7v7.6
		c-0.4,0-0.9,0-1.3,0c-46.7,0-72-22.6-78.7-29.6c-0.7-0.7-1.7-1.1-2.7-1.1c-0.2,0-0.5,0-0.7,0.1c-1.2,0.2-2.3,1.1-2.7,2.2
		c-5,12.2-13.7,18.5-27.5,20c-1.9,0.2-3.3,1.8-3.3,3.7v0.4c-1,0.2-2,0.5-3,0.9c-0.9-20.9-1-34.5,5.3-46.8v0c0.4-0.7,0.8-1.4,1.2-2.2
		c4.5-7.8,13.2-12.7,22.6-12.8c1.1,0,2.2-0.6,2.9-1.5c7.4-9.7,18.6-15.5,30.5-15.9c14.1-0.5,28,2.9,40.2,10
		c10.2,5.9,17.8,13.4,22.3,22.3C487.2,241.4,487.1,255.1,486.1,275.9z M366.2,277.8c12.9-2.2,22-8.5,27.9-19.3
		c4.8,4.4,12.9,10.6,24.3,16.1c16.7,8,35.5,12.1,55.9,12.1c0.5,0,0.9,0,1.4,0v13.5c0,30.2-24.6,54.7-54.7,54.7
		c-30.2,0-54.7-24.6-54.7-54.7V277.8z M482.1,311.3c0.8-0.1,1.6-0.3,2.4-0.5c-0.9,27.1,1,42.1,6.4,51.5c-12.1,3.6-24.9,3.6-38.2,0.1
		c-3.6-1-7.2-2.2-10.7-3.7C462.9,351.2,478.2,333.1,482.1,311.3z"/>
	<path d="M388.5,293.5c1.5,0,2.8,0.6,3.8,1.6c0.7,0.7,1.6,1.1,2.6,1.1c1,0,1.9-0.4,2.6-1.1c0.7-0.7,1.1-1.6,1.1-2.6
		c0-1-0.4-1.9-1.1-2.6c-2.4-2.4-5.7-3.8-9.1-3.8c-3.4,0-6.7,1.3-9.1,3.8c-1.4,1.4-1.4,3.8,0,5.3c0.7,0.7,1.6,1.1,2.6,1.1
		c1,0,1.9-0.4,2.6-1.1C385.6,294,387,293.5,388.5,293.5z"/>
	<path d="M447,296.1c1,0,1.9-0.4,2.6-1.1c2.1-2.1,5.6-2.1,7.7,0c0.7,0.7,1.6,1.1,2.6,1.1c1,0,1.9-0.4,2.6-1.1
		c0.7-0.7,1.1-1.6,1.1-2.6c0-1-0.4-1.9-1.1-2.6c-2.4-2.4-5.7-3.8-9.1-3.8c-3.4,0-6.7,1.3-9.1,3.8c-0.7,0.7-1.1,1.6-1.1,2.6
		c0,1,0.4,1.9,1.1,2.6S446,296.1,447,296.1z"/>
</g>
</svg>
