<?xml version="1.0" encoding="utf-8"?>
<!-- Generator: Adobe Illustrator 21.0.0, SVG Export Plug-In . SVG Version: 6.00 Build 0)  -->
<svg version="1.1" id="Capa_1" xmlns="http://www.w3.org/2000/svg" xmlns:xlink="http://www.w3.org/1999/xlink" x="0px" y="0px"
	 viewBox="-49 141 512 512" style="enable-background:new -49 141 512 512;" xml:space="preserve">
<g>
	<path d="M308.5,323.8c-0.5-0.1-1.1-0.2-1.6-0.3c-1.2-0.2-2.4-0.4-3.7-0.5c-10-1-20.1-3-30.8-6.2c-14.2-4.3-26.3-9.3-37-15.4
		c-3.7-2.1-8.6-5-13.3-8.2c-2.7-1.9-5.4-3.9-8.1-5.9c-1.4-1.1-2.8-2.2-4.3-3.2c-1.8-1.3-3.9-1.3-5.6,0l-1.3,1
		c-2.1,1.6-4.4,3.2-6.4,4.9c-4.5,3.8-9.6,6.8-14,9.3c-1.3,0.7-2.7,1.5-4,2.3c-4.4,2.5-9,5.1-13.9,7l-3.2,1.3
		c-6,2.4-12.2,4.8-18.4,6.7c-10.7,3.3-22.6,5.6-37.4,7.3l-1.5,0.2v2.1l0,0.3c0.6,3.6,0.6,7.1,0.6,10.9c0,2.1,0,4.2,0.1,6.4
		c0.5,8.1,1.9,16.2,3.4,23.9c0.4,2.3,0.9,4.7,1.3,7c1.6,9.1,4.7,17.9,7.6,26.4l0.9,2.5c3.1,8.8,7.2,17.7,13.5,29
		c6.2,11.1,12.5,20.6,19.2,29.1c8.2,10.3,16.5,19.2,25.3,27.1c9.9,8.9,19.2,16,28.6,22l0.4,0.3h4.6l0.5-0.3c0.6-0.5,1.3-1,1.9-1.5
		c1.4-1.1,2.7-2.1,4.1-3c7.6-4.9,15.1-10.9,23.7-18.9c11.7-10.8,22.4-23.2,31.9-36.9c7-10.1,13.3-21.5,20.5-36.9
		c3.2-6.8,5.9-14.4,8.8-24.6c5.6-19.2,8.4-37.4,8.6-55.5c0-0.7,0-1.3,0-2c0-1.7-0.1-3.3,0.3-4.9l0.1-0.2V324L308.5,323.8z
		 M115.7,333.7c0.3-0.4,1.8-0.6,3.5-0.9l0.9-0.2c1.3-0.2,2.6-0.5,3.9-0.7c8.2-1.5,16.8-3.1,24.8-6.4c2.4-1,4.8-1.8,7.3-2.5
		c2.8-0.9,5.8-1.9,8.6-3.1c8-3.5,15.1-7,21.5-10.7c7.8-4.5,14.3-8.9,20-13.5c0.3-0.3,0.5-0.4,0.8-0.4c0.2,0,0.5,0.1,0.9,0.5
		c6.4,5.2,13.5,9.6,20.8,14c4.4,2.7,9.8,5.7,15.5,8c1.5,0.6,3,1.3,4.5,2c2.5,1.1,5,2.3,7.7,3.1c2.9,0.9,5.8,1.9,8.5,2.8
		c6.1,2.1,12.4,4.3,19,5.4l3.2,0.5c3.8,0.6,7.7,1.3,11.5,1.8c0.1,0,0.2,0,0.3,0.1c0,0.1,0,0.3,0,0.5c-0.6,16.6-3.3,33.6-8.2,52
		c-1.6,6.1-4,12-6.4,17.7c-1.2,3-2.5,6-3.6,9.1c-3.3,8.9-8.4,17.1-13.4,25c-0.9,1.4-1.8,2.8-2.7,4.3c-4.4,7-9.8,14.1-17.2,22.4
		c-4.2,4.7-8.8,9.4-14,14.4c-4.8,4.5-10.1,8.7-15.2,12.7c-2.2,1.7-4.5,3.5-6.7,5.3c-3.9,3.2-5.8,2.4-9.4-0.4
		c-10.2-7.7-23.3-18.3-34.5-31c-9.3-10.7-17.1-21.1-23.6-31.9c-5.2-8.6-9.9-18.2-14.8-30.4c-2.7-6.7-4.8-13.5-6.8-20.4
		c-3.9-13.4-5.6-27-6.6-37.4c-0.1-0.6-0.1-1.2-0.2-1.7c-0.2-1.9-0.4-3.7-0.3-5.1l0-0.1C115.3,336.3,115.3,334.2,115.7,333.7z"/>
	<path d="M156.8,415.4c7.1-0.1,14.4-0.1,21.4-0.1c2.6,0,5.2,0,7.9,0c1.1,0,2.3,0,2.7,0.1c0.1,0.5,0.1,1.5,0.1,2.6c0,2.6,0,5.2,0,7.7
		c0,7.1,0,14.4-0.1,21.6c0,1.1,0.1,2.8,1.2,3.9c1.1,1.1,2.7,1.2,3.9,1.2c8.8-0.1,17.5-0.1,25.8,0c0.1,0,0.1,0,0.2,0
		c1.2,0,2.7-0.2,3.8-1.3c1.2-1.2,1.3-2.8,1.3-4.1c-0.1-7.1-0.1-14.3-0.1-21.2c0-2.6,0-5.2,0-7.8c0-1.1,0-2.2,0.1-2.7
		c0.5-0.1,1.5-0.1,2.6-0.1c2.6,0,5.1,0,7.7,0c7.2,0,14.6,0,21.9,0c1.2,0,2.9-0.1,4-1.3c1.2-1.2,1.3-2.8,1.2-4.1
		c-0.1-7.8-0.1-16.1,0-25.4c0-1.3-0.1-2.9-1.2-4.1c-1.1-1.1-2.8-1.3-4-1.2c-5.3,0.1-10.7,0.1-15.8,0.1c-4.9,0-10,0-15,0
		c-1.2,0-1.4-0.2-1.4-0.2c0,0-0.2-0.2-0.2-1.4c0.1-5.4,0.1-10.9,0.1-16.2c0-4.7,0-9.5,0-14.3c0-1.1-0.1-2.7-1.2-3.8
		c-1.1-1.1-2.7-1.2-3.8-1.2c-9.9,0.1-18.1,0.1-25.8,0c-1.4,0-3,0.1-4.2,1.3c-1.2,1.2-1.3,2.9-1.3,4.1c0.1,5.7,0.1,11.6,0.1,17.2
		c0,4.4,0,8.9,0,13.3c0,0.8-0.1,1-0.1,1c0,0-0.3,0.1-1,0.1c-3.8-0.1-7.7-0.1-11.4-0.1c-1.5,0-3,0-4.5,0h0c-1.5,0-3,0-4.5,0
		c-3.6,0-7.3,0.1-11-0.1c-1.1,0-2.8,0-3.9,1.2c-1.1,1.1-1.3,2.7-1.2,4c0.1,9.2,0.1,17.5,0,25.5c0,1.3,0.1,3,1.3,4.2
		C153.9,415.3,155.6,415.4,156.8,415.4z M199.9,371c0-5.5,0-11.1-0.1-16.7c0-1.3,0.2-1.5,0.2-1.5s0.2-0.2,1.5-0.1
		c3.5,0.2,7.2,0.2,11.3,0c1,0,1.2,0.1,1.2,0.1c0,0,0.2,0.3,0.2,1.3c-0.1,7.8-0.1,15.7-0.1,23.4l0,7.2c0,4.9,0.8,5.7,5.6,5.7
		c2.5,0,5.1,0,7.6,0c7.4,0,15.1,0,22.7-0.1c1.4,0,1.6,0.2,1.6,0.2c0,0,0.2,0.3,0.1,1.6c-0.3,3.5-0.5,7.3-0.3,11.1
		c0,0.9-0.1,1.2-0.1,1.2c0,0-0.2,0.1-0.9,0.1c-3-0.3-6.1-0.2-9-0.1c-1.6,0-3.2,0.1-4.8,0.1c-1.9,0-3.9,0-5.8,0
		c-3.9,0-7.8-0.1-11.7-0.1c-1,0-2.5,0.1-3.6,1.2c-1.1,1.1-1.2,2.6-1.2,3.7c0,4.6,0,9.2,0,13.7c0,5.7,0,11.6,0.1,17.4
		c0,1.3-0.2,1.5-0.2,1.5c0,0-0.3,0.2-1.5,0.2c-1.9-0.1-3.8-0.1-5.5-0.1c-2.2,0-4.3,0-6,0.1c-0.7,0-0.9-0.1-0.9-0.1
		c0,0-0.1-0.3-0.1-1.1c0-5.1,0-10.2,0-15.3c0-5.4,0-10.9,0-16.4c0-1.2-0.1-2.7-1.1-3.6c-1-1-2.4-1-3.7-0.9
		c-3.6,0.2-7.4,0.2-11.1,0.1c-1.5,0-3.1,0-4.6,0l0,0c-2.2,0.1-4.4,0-6.5-0.1c-3.4-0.2-6.8-0.3-10.3,0.1c-0.1,0-0.1,0-0.2,0
		c0-0.1,0-0.2,0-0.4l0-1.8c0-3.7,0-7.6,0-11.4c0-0.2,0-0.3,0-0.4c0.2,0,0.6-0.1,1.1-0.1c6,0,12,0,18,0l6.3,0c0.7,0,1.5,0,2.2,0
		c1.6,0,3.2-0.1,4.7,0.1c1.7,0.1,3-0.2,3.9-1c1.2-1.1,1.3-2.8,1.3-4.2C199.9,380.4,199.9,375.6,199.9,371z"/>
</g>
</svg>
