<?xml version="1.0" encoding="utf-8"?>
<!-- Generator: Adobe Illustrator 21.0.0, SVG Export Plug-In . SVG Version: 6.00 Build 0)  -->
<svg version="1.1" id="Capa_1" xmlns="http://www.w3.org/2000/svg" xmlns:xlink="http://www.w3.org/1999/xlink" x="0px" y="0px"
	 viewBox="-92 118 598 558" style="enable-background:new -92 118 598 558;" xml:space="preserve">
<path d="M457.2,310.2L288,201.3c-0.2-0.1-0.5-0.3-0.6-0.4l-72-46.4c-5.1-3.3-11.7-3.3-16.8,0L-43.2,310.2c-5.5,3.6-8,10.2-6.1,16.5
	c1.9,6.3,7.5,10.5,14.1,10.5H9.9v9.4c0,7.2,5.9,13,13,13v212.4c-7.2,0-13,5.9-13,13v10.2h-34.3c-8.6,0-15.6,7-15.6,15.6v15.3
	c0,8.6,7,15.6,15.6,15.6h462.8c8.6,0,15.6-7,15.6-15.6v-15.3c0-8.6-7-15.6-15.6-15.6h-34.3v-10.2c0-7.2-5.9-13-13-13V359.7
	c7.2,0,13-5.9,13-13v-9.4h45.2c6.6,0,12.2-4.2,14.1-10.5C465.2,320.4,462.8,313.8,457.2,310.2z M-23.4,625.2l0-13.3l460.8,0l0,13.3
	L-23.4,625.2z M235.3,572.1V359.7c7.2,0,13-5.9,13-13v-9.4l73.2,0v9.4c0,7.2,5.9,13,13,13v212.4c-7.2,0-13,5.9-13,13v10.2h-73.2
	v-10.2C248.3,577.9,242.5,572.1,235.3,572.1z M218.7,351.4v228.9c0,4.6,3.7,8.3,8.3,8.3h4.8v6.7l-49.5,0v-6.7h4.8
	c4.6,0,8.3-3.7,8.3-8.3V351.4c0-4.6-3.7-8.3-8.3-8.3h-4.8v-5.9h49.5v5.9H227C222.4,343.1,218.7,346.9,218.7,351.4z M79.5,572.1
	V359.7c7.2,0,13-5.9,13-13v-9.4l73.2,0v9.4c0,7.2,5.9,13,13,13v212.4c-7.2,0-13,5.9-13,13v10.2H92.5v-10.2
	C92.5,577.9,86.7,572.1,79.5,572.1z M63,351.4v228.9c0,4.6,3.7,8.3,8.3,8.3H76v6.7H26.5v-6.7h4.8c4.6,0,8.3-3.7,8.3-8.3v-18.6l0-0.2
	l0-0.2v-210c0-4.6-3.7-8.3-8.3-8.3h-4.8v-5.9l49.5,0v5.9h-4.8C66.7,343.1,63,346.9,63,351.4z M209.2,212.6l168,108.1H36.8l168-108.1
	C206.1,211.8,207.9,211.8,209.2,212.6z M374.5,351.4v228.9c0,4.6,3.7,8.3,8.3,8.3h4.8v6.7H338v-6.7h4.8c4.6,0,8.3-3.7,8.3-8.3V351.4
	c0-4.6-3.7-8.3-8.3-8.3H338v-5.9l49.5,0v5.9h-4.8C378.2,343.1,374.5,346.9,374.5,351.4z M-29,320.7l236-151.8l87.4,56.3
	c0.3,0.2,0.5,0.3,0.7,0.4L443,320.7h-35.2l-189.6-122c-6.8-4.4-15.6-4.4-22.4,0L6.2,320.7H-29z"/>
</svg>
