<?xml version="1.0" encoding="utf-8"?>
<!-- Generator: Adobe Illustrator 21.0.0, SVG Export Plug-In . SVG Version: 6.00 Build 0)  -->
<svg version="1.1" id="Capa_1" xmlns="http://www.w3.org/2000/svg" xmlns:xlink="http://www.w3.org/1999/xlink" x="0px" y="0px"
	 viewBox="-71 119 556 556" style="enable-background:new -71 119 556 556;" xml:space="preserve">
<g>
	<path d="M206.9,598.8C95.8,598.8,5.4,508.4,5.4,397.3c0-111.1,90.4-201.5,201.5-201.5s201.5,90.4,201.5,201.5
		C408.4,508.4,318,598.8,206.9,598.8z M206.9,213.8c-101.2,0-183.5,82.3-183.5,183.5s82.3,183.5,183.5,183.5
		c101.2,0,183.5-82.3,183.5-183.5S308.1,213.8,206.9,213.8z"/>
</g>
<g>
	<path d="M206.9,653.6c-68.5,0-132.8-26.7-181.3-75.1c-48.4-48.4-75.1-112.8-75.1-181.3S-22.8,264.4,25.7,216
		C74.1,167.6,138.4,141,206.9,141c68.5,0,132.8,26.7,181.3,75.1c48.4,48.4,75.1,112.8,75.1,181.3s-26.7,132.8-75.1,181.3
		S275.4,653.6,206.9,653.6z M206.9,159c-63.7,0-123.5,24.8-168.5,69.8s-69.8,104.9-69.8,168.5s24.8,123.5,69.8,168.5
		c45,45,104.9,69.8,168.5,69.8c63.7,0,123.5-24.8,168.5-69.8c45-45,69.8-104.9,69.8-168.5s-24.8-123.5-69.8-168.5
		C330.4,183.7,270.6,159,206.9,159z"/>
</g>
<g>
	<path d="M225.9,405.7H182c-5.5,0-10,4.5-10,10v56c0,5.5,4.5,10,10,10h43.9c21,0,38-17,38-38S246.9,405.7,225.9,405.7z M225.9,461.7
		H192v-36h33.9c9.9,0,18,8.1,18,18S235.9,461.7,225.9,461.7z"/>
	<path d="M231,275.1V253c0-5.5-4.5-10-10-10c-5.5,0-10,4.5-10,10v22h-32v-22c0-5.5-4.5-10-10-10c-5.5,0-10,4.5-10,10v22h-38
		c-5.5,0-10,4.5-10,10v40c0,5.5,4.5,10,10,10h14v124h-14c-5.5,0-10,4.5-10,10v40c0,5.5,4.5,10,10,10h38v22c0,5.5,4.5,10,10,10
		c5.5,0,10-4.5,10-10v-22h32v22c0,5.5,4.5,10,10,10c5.5,0,10-4.5,10-10v-22.1c40-1.8,72-34.8,72-75.2c0-17.2-5.7-33.4-16.2-46.7
		c10.5-13.2,16.2-29.5,16.2-46.7C303,309.9,271,276.8,231,275.1z M227.7,499H131v-20h14c5.5,0,10-4.5,10-10V325c0-5.5-4.5-10-10-10
		h-14v-20h96.7c30.5,0,55.3,24.8,55.3,55.3c0,15-5.9,29-16.7,39.5c-1.9,1.9-3,4.5-3,7.1c0,2.7,1.1,5.3,3,7.1
		c10.7,10.5,16.7,24.6,16.7,39.5C283,474.2,258.2,499,227.7,499z"/>
	<path d="M182,388.3h43.9c21,0,38-17,38-38s-17-38-38-38H182c-5.5,0-10,4.5-10,10v56C172,383.9,176.5,388.3,182,388.3z M192,332.3
		h33.9c9.9,0,18,8.1,18,18s-8.1,18-18,18H192V332.3z"/>
</g>
</svg>
