<?xml version="1.0" encoding="utf-8"?>
<!-- Generator: Adobe Illustrator 21.0.0, SVG Export Plug-In . SVG Version: 6.00 Build 0)  -->
<svg version="1.1" id="Layer_1" xmlns="http://www.w3.org/2000/svg" xmlns:xlink="http://www.w3.org/1999/xlink" x="0px" y="0px"
	 viewBox="0 0 841.9 595.3" style="enable-background:new 0 0 841.9 595.3;" xml:space="preserve">
<g>
	<path d="M419.9,205.1c-40.3,0-73.2,32.8-73.2,73.2c0,40.3,32.8,73.2,73.2,73.2s73.2-32.8,73.2-73.2
		C493.1,237.9,460.3,205.1,419.9,205.1z M419.9,343.2c-35.8,0-64.9-29.1-64.9-64.9c0-35.8,29.1-64.9,64.9-64.9s64.9,29.1,64.9,64.9
		C484.8,314.1,455.7,343.2,419.9,343.2z"/>
	<path d="M419.9,357.7c-2.3,0-4.1,1.9-4.1,4.1v21.8c0,2.3,1.9,4.1,4.1,4.1s4.1-1.9,4.1-4.1v-21.8
		C424.1,359.6,422.2,357.7,419.9,357.7z"/>
	<path d="M419.9,198.8c2.3,0,4.1-1.9,4.1-4.1v-21.8c0-2.3-1.9-4.1-4.1-4.1s-4.1,1.9-4.1,4.1v21.8C415.8,197,417.7,198.8,419.9,198.8
		z"/>
	<path d="M336.4,274.1h-19.8c-2.3,0-4.1,1.9-4.1,4.1s1.9,4.1,4.1,4.1h19.8c2.3,0,4.1-1.9,4.1-4.1S338.7,274.1,336.4,274.1z"/>
	<path d="M525.3,274.1h-21.8c-2.3,0-4.1,1.9-4.1,4.1s1.9,4.1,4.1,4.1h21.8c2.3,0,4.1-1.9,4.1-4.1S527.6,274.1,525.3,274.1z"/>
	<path d="M449,270.5h-16.6l9.7-42.2c0.4-1.9-0.5-3.8-2.2-4.6c-1.7-0.9-3.8-0.5-5,1l-47.2,54.5c-1.1,1.2-1.3,3-0.6,4.4
		c0.7,1.5,2.1,2.4,3.8,2.4h16.6l-9.7,42.2c-0.4,1.9,0.5,3.8,2.2,4.6c0.6,0.3,1.2,0.4,1.9,0.4c1.2,0,2.3-0.5,3.1-1.4l47.2-54.5
		c1.1-1.2,1.3-3,0.6-4.4C452.1,271.5,450.6,270.5,449,270.5z M416.7,282.8c0.3-1.2,0-2.5-0.8-3.5c-0.8-1-2-1.6-3.2-1.6h-12.7
		l30.4-35.1l-7.2,31c-0.3,1.2,0,2.5,0.8,3.5c0.8,1,2,1.6,3.2,1.6H440l-30.4,35.1L416.7,282.8z"/>
	<path d="M482,334.5c-0.8-0.8-1.8-1.2-2.9-1.2s-2.1,0.4-2.9,1.2s-1.2,1.8-1.2,2.9s0.4,2.1,1.2,2.9l5.4,5.4c0.8,0.8,1.8,1.2,2.9,1.2
		c1.1,0,2.1-0.4,2.9-1.2c1.6-1.6,1.6-4.2,0-5.8L482,334.5z"/>
	<path d="M357.9,222.1c0.8,0.8,1.8,1.2,2.9,1.2c1.1,0,2.1-0.4,2.9-1.2c0.8-0.8,1.2-1.8,1.2-2.9s-0.4-2.1-1.2-2.9l-5.3-5.2
		c-1.6-1.6-4.3-1.8-5.9-0.3c-0.8,0.8-1.3,1.8-1.3,3c0,1.1,0.4,2.2,1.2,3L357.9,222.1z"/>
	<path d="M360.9,333.2C360.9,333.2,360.9,333.2,360.9,333.2c-1.1,0-2.1,0.4-2.9,1.2l-5.4,5.4c-1.6,1.6-1.6,4.2,0,5.8
		c0.8,0.8,1.8,1.2,2.9,1.2c1.1,0,2.1-0.4,2.9-1.2l5.4-5.4c0.8-0.8,1.2-1.8,1.2-2.9c0-1.1-0.4-2.1-1.2-2.9
		C363,333.7,362,333.2,360.9,333.2z"/>
	<path d="M479,223.3c1.1,0,2.1-0.4,2.9-1.2l5.4-5.4c1.6-1.6,1.6-4.2,0-5.8c-1.6-1.6-4.2-1.6-5.8,0l-5.4,5.4
		c-0.8,0.8-1.2,1.8-1.2,2.9s0.4,2.1,1.2,2.9C476.9,222.9,477.9,223.3,479,223.3z"/>
</g>
</svg>
