<?xml version="1.0" encoding="utf-8"?>
<!-- Generator: Adobe Illustrator 21.0.0, SVG Export Plug-In . SVG Version: 6.00 Build 0)  -->
<svg version="1.1" id="Capa_1" xmlns="http://www.w3.org/2000/svg" xmlns:xlink="http://www.w3.org/1999/xlink" x="0px" y="0px"
	 viewBox="-49 117 512 560" style="enable-background:new -49 117 512 560;" xml:space="preserve">
<g>
	<path d="M365.6,368.3L283.8,266v-82.3c0-23.5-19.1-42.7-42.7-42.7H70.5c-23.5,0-42.7,19.1-42.7,42.7v307.2
		c0,23.5,19.1,42.7,42.7,42.7h76.8V556c0,53.5,43.5,97,97,97h133.4c4.7,0,8.5-3.8,8.5-8.5V427C386.2,405.7,378.9,384.9,365.6,368.3z
		 M241.1,158.1c14.1,0,25.6,11.5,25.6,25.6v223.8l-34.1-36.3V158.1H241.1z M215.5,353.1l-14.6-15.5c-3.2-3.4-6.9-6.2-11-8.2V158.1
		h25.6V353.1z M44.9,490.9V183.7c0-14.1,11.5-25.6,25.6-25.6h102.4v167.1c-10.5-0.2-20.2,3.6-27.7,10.7c-0.1,0.1-0.8,0.7-0.9,0.8
		c-14.6,14.6-15.6,37.6-2.3,53.4l30.8,36.4v89.9H70.5C56.4,516.5,44.9,505,44.9,490.9z M216.3,516.5h-26.4v-69.8l25.6,30.2v26.4
		C215.5,507.8,215.8,512.1,216.3,516.5z M369.1,635.9H244.3c-44.1,0-80-35.9-80-80v-22.4h55.3c9.6,34.5,35.2,63.4,69.7,76.3l6-16
		c-37.5-14.1-62.7-50.4-62.7-90.5v-29.5c0-2-0.7-4-2-5.5l-75.5-89.1c-7.6-9-7-22.1,1.7-30.8c4.4-4.1,10-6.2,16-6.1
		c6,0.2,11.6,2.7,15.7,7l114.7,121.9l12.4-11.7l-31.8-33.8V293.3l68.5,85.6c10.9,13.6,16.8,30.6,16.8,48V635.9z"/>
	<rect x="70.5" y="183.7" width="17.1" height="110.9"/>
	<rect x="113.1" y="183.7" width="17.1" height="68.3"/>
	<path d="M130.2,422.6H79c-4.7,0-8.5,3.8-8.5,8.5v51.2c0,4.7,3.8,8.5,8.5,8.5h51.2c4.7,0,8.5-3.8,8.5-8.5v-51.2
		C138.7,426.4,134.9,422.6,130.2,422.6z M121.7,473.8H87.5v-34.1h34.1V473.8z"/>
</g>
</svg>
