
<svg version="1.1" id="Capa_1" xmlns="http://www.w3.org/2000/svg" xmlns:xlink="http://www.w3.org/1999/xlink" x="0px" y="0px"
	 viewBox="-49 141 512 512" style="enable-background:new -49 141 512 512;" xml:space="preserve">
<path d="M239,173H47c-4.4,0-8,3.6-8,8v336c0,4.4,3.6,8,8,8h8v11.8c-0.1,35.3,11.8,69.6,33.8,97.2c2.8,3.5,7.8,4,11.2,1.2
	s4-7.8,1.2-11.2l0,0c-19.7-24.8-30.3-55.6-30.2-87.2V525h32v54.7c0,4.4,3.6,8,8,8s8-3.6,8-8v-94.6c0-8.8,7.2-16,16-16s16,7.2,16,16
	v70.5c0,2.1,0.8,4.1,2.3,5.6l3.7,3.7c16.7,17.1,26,40.1,26,64c0,4.4,3.6,8,8,8s8-3.6,8-8c0-17.5-4.3-34.8-12.4-50.3
	c11.4-15.7,18.3-34.3,20-53.7H239c4.4,0,8-3.6,8-8v-44.7l157.7-158.2c3.1-3.1,3.1-8.2,0-11.3c0,0,0,0,0,0l-120-119.4
	c-3.1-3.1-8.2-3.1-11.3,0L247,209.8V181C247,176.6,243.4,173,239,173z M177.2,564c-2.7-3.6-5.7-7.1-8.8-10.4l-1.4-1.4V525h23.5
	C189.1,538.9,184.6,552.2,177.2,564z M231,509h-64v-23.9c0.2-17.6-13.9-32.1-31.6-32.2c-14.7-0.2-27.7,9.8-31.3,24.1H87v-32
	c0-4.4-3.6-8-8-8c-4.4,0-8,3.6-8,8v40c0,4.4,3.6,8,8,8h24v16H55V189h176V509z M279,200.3l108.7,108.1L247,449.6v-25.3l109.7-109.7
	c3.1-3.1,3.1-8.2,0-11.3l-16-16c-3.2-3.1-8.2-3-11.3,0.2c-3,3.1-3,8,0,11.1l10.3,10.3L247,401.7V280.3l32-32l10.3,10.3
	c3.2,3.1,8.2,3,11.3-0.2c3-3.1,3-8,0-11.1l-16-16c-3.1-3.1-8.2-3.1-11.3,0L247,257.7v-25.2L279,200.3z"/>
<path d="M143,413c39.8,0,72-32.2,72-72s-32.2-72-72-72s-72,32.2-72,72C71,380.7,103.3,413,143,413z M143,397
	c-15,0-29.4-6.1-39.9-16.8c17.6,3.6,35.4-5.1,43.4-21.2c5.2,12.9,15.9,22.9,29.1,27.4C166.1,393.3,154.7,397,143,397z M199,341
	c0,11.4-3.5,22.5-10,31.8c-17.6-1-31-16-30.1-33.6c0.9-16.2,13.8-29.2,30.1-30.1C195.5,318.5,199,329.6,199,341z M143,285
	c11.7,0,23.1,3.7,32.6,10.6c-13.2,4.5-23.9,14.5-29.1,27.4c-8-16.1-25.8-24.8-43.4-21.2C113.6,291.1,128,285,143,285z M111,317
	c13.3,0,24,10.7,24,24s-10.7,24-24,24s-24-10.7-24-24S97.7,317,111,317z"/>
<path d="M207,437c-4.4,0-8,3.6-8,8v32h-8c-4.4,0-8,3.6-8,8s3.6,8,8,8h16c4.4,0,8-3.6,8-8v-40C215,440.6,211.4,437,207,437z"/>
</svg>
