<?xml version="1.0" encoding="utf-8"?>
<!-- Generator: Adobe Illustrator 21.0.0, SVG Export Plug-In . SVG Version: 6.00 Build 0)  -->
<svg version="1.1" id="Capa_1" xmlns="http://www.w3.org/2000/svg" xmlns:xlink="http://www.w3.org/1999/xlink" x="0px" y="0px"
	 viewBox="-49 141 512 512" style="enable-background:new -49 141 512 512;" xml:space="preserve">
<g>
	<path d="M328.2,453.2c-0.1-0.2-0.1-0.4-0.2-0.6c-0.1-0.4-0.2-0.7-0.3-1.1c-0.8-5.6-3.3-10.5-7.6-14.7c-0.9-0.8-1.7-1.7-2.6-2.5
		c-0.9-0.8-1.7-1.6-2.6-2.5c-1.1-1.1-1.7-2.5-1.7-4c-0.1-5.7-2.8-9.7-8.1-11.6c-0.7-0.3-0.9-0.5-0.8-1.1c0.1-2-0.1-4.1-0.6-6.6
		c-1-5.7-4.1-8.5-9.7-8.5l-0.3,0c-0.2,0-0.4,0-0.6,0c-0.3,0-0.4,0-0.4-0.1c0,0-0.1-0.1-0.1-0.4c0-0.4,0-0.8,0-1.2
		c0-0.8,0.1-1.6,0.1-2.4c0.6-5.5,0.5-10.1-0.2-14.3c-1.1-6.7-7.2-10.3-12.7-10.5c-5-0.1-9.8-0.3-14.6-1.1c-4.1-0.7-9.4-1.7-14.1-4.4
		c-4-2.2-5.8-4.9-5.6-8.8c0-1.4-0.4-2.9-0.8-3.9c-2.5-6.7-7.4-11.4-11.9-15.1c-9.4-7.8-20.3-13.9-33.3-18.5
		c-3.9-1.4-8.2-2.7-12.8-2.7c-3.4,0-5.8,2.4-5.8,5.8c0,3.4,2.4,6.1,5.7,6.1c2.2,0,4.3,0.5,6.8,1.3c6,1.8,12.1,4.6,19.6,9
		c5.3,3.1,11.5,6.9,16.6,12.3c1.9,2,3.9,4.6,4.1,8.5c0.3,6.1,3.3,11.2,9.1,15c8.3,5.6,17.9,7.2,26.2,8c2.3,0.2,4.6,0.3,6.9,0.4
		c1.1,0.1,2.2,0.1,3.3,0.2c1,0.1,1.5,0.5,1.7,1.5c0.4,2,0.5,3.8,0.3,5.6c-0.1,0.7-0.1,1.4-0.2,2.1c-0.3,3.2-0.6,6.5-0.5,9.8
		c0.1,5,4.2,9.2,9.2,9.5c1,0.1,1.9,0.1,2,0.3c0.2,0.2,0.3,1.1,0.4,2c0.4,3.1-0.2,5.3-2,7.2c-0.7,0.7-1.3,1.4-2,2.1
		c-1.7,1.9-3.5,3.9-5.4,5.7c-1.3,1.3-2.7,3-2.1,5.5c0.5,2.4,2,4.2,4,4.8c2,0.7,4.3,0.1,6.2-1.6c3.2-2.7,5.9-5.8,8.9-9.6l0.2-0.2
		c0.4-0.5,0.4-0.5,0.6-0.4c0.2,0.1,0.2,0.1,0.3,0.7c0,0.1,0,0.2,0,0.4c0.6,5.1,2.2,8.8,5.1,11.6l1.4,1.4c1.5,1.5,3,3,4.6,4.4
		c4.5,4.1,5.2,13.4,1.3,18.5c-3.1,4-6.9,7.6-11.6,11.3c-7.6,5.7-16.6,10.8-27.5,15.4c-9.6,4.1-19.3,7.1-29,8.9
		c-6.5,1.2-15.2,2.6-24.1,2.2c-5.1-0.2-9.5-1.9-13.1-4.9c-5.5-4.6-8-10.9-9.6-16.4c-1.9-6.2-2.8-12.7-3.5-18.1
		c-1-7.6-1.4-15.1-1.8-22.8c-0.4-7-0.8-14.8-0.9-22.6c-0.1-6.7-0.5-13.5-0.8-20.1l-0.2-4.5c-0.2-5-0.7-10.3-1.2-15.5
		c-1.1-10.1-2.5-18.4-4.4-26.2c-3.3-13.5-7.5-23.9-13.3-32.8c-5.6-8.5-11.9-14.8-19.3-19.5c-10.8-6.8-23.5-10.5-38.8-11.4
		c-1.3-0.1-2.4-0.4-3.5-0.9c-5.1-2.6-10.7-4.7-17-6.3c-3.2-0.8-6.1,0.7-7.3,3.9c-0.1,0.2-0.2,0.3-0.2,0.5l-0.2,0.5v2l0.1,0.2
		c1,2.6,2.9,4.3,5.7,4.9c3.5,0.8,7,2.1,11.6,4.2c15.1,7,25.1,18.7,30.5,35.9c1.9,5.9,3.2,12.4,4,19.7c0.8,7.2,0.9,14.6,1,21
		c0.1,9.4-0.5,18.9-1.1,27.1c-0.2,3.3-0.5,6.5-0.7,9.5l-0.4,4.2c-0.3,3.5-0.6,6.9-0.9,10.4c-0.1,1.2-0.2,2.4-0.3,3.6
		c-0.1,1.6-0.2,3.3-0.4,5c-0.6,5.3-1,11-1.2,18c-0.3,7.4-0.4,15.2,0.3,23.1c0.5,5.9,1.5,13.7,4.5,21.3c3.6,9.1,9.7,15.5,18.1,19
		l0.2,0.1h3l0.1-0.1c2.7-1,4.1-2.8,4.3-5.4c0.2-2.7-1.1-4.7-3.8-6.1c-5.6-2.8-9.5-7.7-11.8-15c-2.2-6.7-2.7-13.5-3-19.3l-0.1-1.8
		c-0.2-2.8-0.3-5.7-0.2-8.5c0.1-2.1,0.2-4.1,0.3-6.2c0.2-4.9,0.5-9.9,0.9-14.9c0.4-4.4,0.8-8.9,1.1-13.2c0.2-2.6,0.4-5.2,0.6-7.9
		c0.2-1.9,0.3-3.8,0.5-5.8c0.3-3,0.6-6.1,0.8-9.2c0.1-1,0.1-2,0.2-3c0.2-2,0.3-4.1,0.4-6.2c0-2.7,0.2-5.4,0.3-8.1
		c0.2-5,0.4-10.2,0.2-15.3c-0.5-11.8-1.2-21.6-3.5-31.5c-1.2-5.2-2.8-10.5-5-15.8c-2.7-6.7-6.4-12.9-11.5-18.9
		c1.4,0.4,2.8,0.8,4.1,1.3l0.9,0.3c4.7,1.6,9.4,4.1,13.9,7.5c4.9,3.6,9,7.9,12.2,12.6c6.2,9.2,10.5,20.1,13.4,34.2
		c1.6,7.7,2.7,15.9,3.6,25.7c0.4,5.3,0.8,10.3,1,15.1c0.4,9.2,0.8,18.3,1,27.1c0.2,7.5,0.5,15,1,22.2c0.6,8.7,1.4,18.7,3.5,28.5
		c1.8,8.2,4.4,17.7,10.7,25.5c5,6.2,11.4,10.1,19.2,11.5c0.9,0.2,1.7,0.3,2.6,0.4l1.2,0.2l0.1,0l10.8,0c0.6-0.1,1.2-0.1,1.8-0.2
		c1.2-0.1,2.5-0.3,3.8-0.4c6.4-0.5,13.1-1.6,21.1-3.7c7.9-2.1,13.9-4,19.4-6.2c10.3-4.2,18.9-8.7,26.5-13.6
		c6.9-4.6,12.1-8.8,16.5-13.5c3.8-4.1,6.7-8.3,8.6-13c0.2-0.4,0.3-0.9,0.3-1.3c0.1-0.5,0.2-0.9,0.4-1.2l0.2-0.2v-7.3L328.2,453.2z"
		/>
	<path d="M220.6,367.3c-13.1,3.3-22.7,15.5-22.7,29.1c-0.1,1.5,0,3.4,1.2,5c1.2,1.6,2.9,2.4,4.8,2.4c0.7,0,1.3-0.1,2-0.3
		c2.3-0.7,3.9-3,4.1-5.6c0-0.6,0-1.2,0-1.8c0-1.2,0-2.3,0.3-3.5c1.9-7.6,7.5-12.7,15.3-14c1-0.2,2-0.3,3.4-0.3
		c2.9-0.1,5.2-2.3,5.5-5c0.3-3.5-1.5-6-4.6-6.6h0C226.5,366.1,223.2,366.7,220.6,367.3z"/>
	<path d="M231.4,390.6c-3.8,5.2-8.6,9-14.4,11.4c-2.7,1.1-4.1,3.9-3.4,7c0.6,2.6,2.8,4.3,5.8,4.3c0,0,0.1,0,0.1,0
		c1.1,0,2-0.2,2.8-0.5c7.4-3.2,13.7-8.3,18.8-15.2c1.1-1.6,1.6-3,1.3-4.5c-0.5-2.8-2.1-4.6-4.8-5.2
		C235.2,387.4,233,388.3,231.4,390.6z"/>
</g>
</svg>
