<?xml version="1.0" encoding="utf-8"?>
<!-- Generator: Adobe Illustrator 21.0.0, SVG Export Plug-In . SVG Version: 6.00 Build 0)  -->
<svg version="1.1" id="Layer_1" xmlns="http://www.w3.org/2000/svg" xmlns:xlink="http://www.w3.org/1999/xlink" x="0px" y="0px"
	 viewBox="0 0 841.9 595.3" style="enable-background:new 0 0 841.9 595.3;" xml:space="preserve">
<path d="M502,300.1c0-0.1,0-0.2,0-0.3c-0.8-3.6-1.9-7.1-3.1-10.5c0-0.1-0.1-0.2-0.1-0.3c-4-10.9-9.4-18.9-13.9-25.7
	c-0.1-0.2-0.2-0.4-0.4-0.6c10.3-5.6,17.3-16.5,17.3-29v-2.7c0-2-1.6-3.7-3.7-3.7h-19c0.6-1.1,1.2-2.2,1.8-3.3
	c3.1-5.4,6.3-11,6.3-22.2c0-1.3,0-2.5,0-3.8c0-1.3-0.8-2.6-2-3.2c-1.2-0.6-2.6-0.5-3.7,0.2c-5.8,3.9-13.3,6-21.2,6
	c-10.7,0-20.5-3.9-26.3-10.5c-0.7-0.8-1.7-1.2-2.7-1.2c0,0,0,0,0,0c-1.1,0-2.1,0.4-2.7,1.2c-5.8,6.6-15.7,10.5-26.3,10.5
	c-6.8,0-13.2-1.5-18.6-4.5c-1.1-0.6-2.5-0.6-3.6,0.1c-1.1,0.6-1.8,1.8-1.8,3.1c0,0.7,0,1.4,0,2c0,11.1,3.2,16.7,6.3,22.2
	c0.6,1.1,1.2,2.1,1.8,3.2H341c-2,0-3.7,1.6-3.7,3.7v32c0,2,1.6,3.7,3.7,3.7h38.4c-3.8,6.4-8,14.1-11.1,24.1c0,0.1-0.1,0.2-0.1,0.3
	c-0.9,2.8-1.6,5.8-2.2,8.7c0,0.1,0,0.2,0,0.3c-1.5,7-2.4,14.9-2.4,24.1c0,17.6,4.7,34.3,13.6,48.5c0.7,1.1,1.8,1.7,3.1,1.7h48.1
	c2,0,3.7-1.6,3.7-3.7v-5.1h4.3v5.1c0,2,1.6,3.7,3.7,3.7h48.1c1.3,0,2.4-0.6,3.1-1.7c8.9-14.1,13.6-30.9,13.6-48.5
	C504.6,315,503.6,307.1,502,300.1z M387.9,266.8h80.8c3,0,5.9-0.4,8.7-1.2c0.3,0.5,0.7,1,1,1.5l0.2,0.4c4,5.9,8.4,12.5,11.9,20.9
	c-17.5,5.8-38,8.9-59.4,8.9c-19.5,0-38.4-2.6-54.8-7.5c3.3-9.2,7.5-16.2,11.3-22.5L387.9,266.8z M358.4,249.3c2,0,3.7-1.6,3.7-3.7
	v-10.9h7.2v16.7c0,2,1.6,3.7,3.7,3.7c2,0,3.7-1.6,3.7-3.7v-16.7h7.2v10.9c0,2,1.6,3.7,3.7,3.7c2,0,3.7-1.6,3.7-3.7v-10.9h7.2v16.7
	c0,2,1.6,3.7,3.7,3.7s3.7-1.6,3.7-3.7v-16.7h7.2v10.9c0,2,1.6,3.7,3.7,3.7c2,0,3.7-1.6,3.7-3.7v-10.9h7.2v16.7c0,2,1.6,3.7,3.7,3.7
	c2,0,3.7-1.6,3.7-3.7v-16.7h7.2v10.9c0,2,1.6,3.7,3.7,3.7c2,0,3.7-1.6,3.7-3.7v-10.9h7.2v16.7c0,2,1.6,3.7,3.7,3.7
	c2,0,3.7-1.6,3.7-3.7v-16.7h30.5c-0.5,13.7-11.9,24.7-25.6,24.7h-124v-24.7h10.1v10.9C354.8,247.7,356.4,249.3,358.4,249.3z
	 M394.2,227.5c-1.1-2.6-2.3-4.7-3.5-6.9c-2.4-4.1-4.6-8-5.2-14.8c5.2,1.9,10.7,2.9,16.5,2.9c11.2,0,21.8-3.7,29.1-10.2
	c7.3,6.5,17.9,10.2,29.1,10.2c6.9,0,13.6-1.4,19.5-4.1c-0.4,7.6-2.8,11.7-5.3,16.1c-1.2,2.1-2.4,4.3-3.5,6.9H394.2z M493.8,297.5
	c0.1,0.2,0.1,0.5,0.2,0.7c-17.1,6-34.9,22.8-47.8,45.2c-2.8,4.9-5.3,9.9-7.5,15h-9.2c-2.1-5.1-4.7-10.1-7.5-15
	c-13-22.5-31-39.4-48.2-45.3c0.1-0.4,0.2-0.8,0.3-1.3c17.2,5.1,36.8,7.8,57,7.8c22.3,0,43.7-3.2,62-9.3c0.1,0.2,0.1,0.5,0.2,0.7
	C493.4,296.4,493.6,296.9,493.8,297.5z M415.6,347c3.1,5.3,5.8,10.8,8,16.4c0.2,0.5,0.5,1,0.9,1.4v2.3h-42.3
	c-7.5-12.6-11.4-27.4-11.4-42.9c0-7.1,0.6-13.3,1.5-18.9C387.4,310.8,403.7,326.4,415.6,347z M443.5,364.7c0.4-0.4,0.8-0.8,1-1.4
	c2.2-5.5,4.9-11,8-16.4c11.8-20.5,28.1-36.1,43.1-41.6c1,5.6,1.6,11.8,1.6,18.8c0,15.5-3.9,30.3-11.4,42.9h-42.3V364.7z"/>
</svg>
