<?xml version="1.0" encoding="utf-8"?>
<!-- Generator: Adobe Illustrator 21.0.0, SVG Export Plug-In . SVG Version: 6.00 Build 0)  -->
<svg version="1.1" id="Capa_1" xmlns="http://www.w3.org/2000/svg" xmlns:xlink="http://www.w3.org/1999/xlink" x="0px" y="0px"
	 viewBox="-49 141 512 512" style="enable-background:new -49 141 512 512;" xml:space="preserve">
<g>
	<path d="M279.2,358.6c-0.7-0.9-1.5-1.8-2.1-2.7c-6.5-8.3-9.8-17.7-12.7-26c-2.1-6-4-11.2-6.7-15c-4.1-5.6-13.8-9.2-21.2-11.2
		c-8.7-2.3-17-3.3-19.9-3.2c-5.4,0.2-9.4,4-10.7,10.3c-1.9,0.6-4.3,1.8-6.5,4.1c-6.2,6.5,2.8,21,11.3,29.2
		c6.6,6.4,11.4,6.1,15.3,5.9c1.7-0.1,3.2-0.2,5.1,0.2c4.3,1,8.6,4.3,10.6,6c-1.7,29.8,2.9,45.5,5.4,52.9c-1.4-0.2-3.1-0.5-4.7-0.9
		c-13.9-25.1-41.9-22.5-51.2-20.8c-12.7-19-34.1-25.3-50-24.8c-14,0.5-23.2-0.4-24.2-0.5c-2-0.2-4,1-4.6,3c-0.5,1.4-11.7,35.1,2,68
		c13.2,31.6,28.9,57.7,29,57.9c0.8,1.3,2.2,2.1,3.8,2.1c0.8,0,1.6-0.2,2.3-0.6c14.9-8.9,21.7-20.4,24.5-27
		c30.8,11.7,63.7,7.3,85.9,1.4c25.2-6.6,43-16.4,43.7-16.8c1.2-0.7,2-1.9,2.2-3.3C311.7,399.9,291.4,374,279.2,358.6z M181.2,389.3
		l8.6,16.7c0.8,1.5,2.3,2.4,3.9,2.4c0.7,0,1.4-0.2,2-0.5c2.2-1.1,3-3.8,1.9-5.9l-3.1-6c9.3-1.3,30.6-1.9,40.7,18.2
		c0.6,1.2,1.6,2,2.9,2.3c14.2,3.6,16.4,1.1,17.5-0.2c2.1-2.4,1.2-5,0.1-8.4c-2.2-6.5-7.4-21.6-5.3-53.2c0.1-1.2-0.4-2.5-1.3-3.4
		c-0.8-0.8-7.9-7.8-16.3-9.7c-3.2-0.7-5.8-0.5-7.6-0.4c-3.2,0.2-4.7,0.3-8.5-3.4c-7-6.8-10.8-15-10.7-17.1c1.8-1.6,3.9-1.7,3.9-1.7
		c2.4,0,4.3-2,4.4-4.4c0-0.1,0.2-5.2,2.6-5.2c7.1-0.2,29.4,4.7,33.7,10.7c2,2.8,3.6,7.4,5.5,12.8c3,8.4,6.7,19,14.1,28.4
		c0.7,0.9,1.4,1.8,2.2,2.8c11.8,15,29.6,37.6,24.8,79.6c-5.6,2.9-23.5,11.4-46.2,16.5c-29.7,6.7-56,5.3-78-4.2
		c-1.2-0.5-2.5-0.5-3.7,0.1c-1.2,0.6-2,1.6-2.3,2.9c0,0.1-3.7,13.5-18.5,23.9c-4.9-8.6-16.2-29-26.1-52.8
		c-10.1-24.3-4.9-50-2.7-58.5c4.1,0.3,11.7,0.6,21.7,0.2C153.9,371.2,170.4,375.8,181.2,389.3z"/>
	<path d="M173.4,418.1c-1.6,1.8-1.5,4.6,0.3,6.2c0.4,0.4,10,9,23.2,15.6c9.8,4.9,19,7.3,27.4,7.3c7.2,0,13.8-1.8,19.6-5.4
		c2.1-1.3,2.7-4,1.4-6.1c-1.3-2.1-4-2.7-6.1-1.4c-24.1,15-59.2-16.3-59.5-16.6C177.8,416.1,175,416.3,173.4,418.1z"/>
</g>
</svg>
