<?xml version="1.0" encoding="utf-8"?>
<!-- Generator: Adobe Illustrator 21.0.0, SVG Export Plug-In . SVG Version: 6.00 Build 0)  -->
<svg version="1.1" id="Layer_1" xmlns="http://www.w3.org/2000/svg" xmlns:xlink="http://www.w3.org/1999/xlink" x="0px" y="0px"
	 viewBox="0 0 841.9 595.3" style="enable-background:new 0 0 841.9 595.3;" xml:space="preserve">
<g>
	<g>
		<g>
			<path d="M420.9,377.3c-1.6,0-3.2-0.4-4.6-1.2c-32.9-17.9-56.5-38.1-70.2-59.9c-15.2-24.3-14.6-44.6-11.3-57.3
				c6.2-24.2,26.7-41.1,50-41.1c13.5,0,26.2,5.8,36.1,16.6c10-10.7,22.6-16.6,36.2-16.6c23.3,0,43.8,16.9,50,41.1l0,0
				c3.2,12.7,3.9,33-11.3,57.3c-13.7,21.9-37.3,42-70.2,59.9C424.1,376.9,422.5,377.3,420.9,377.3z M384.8,226.8
				c-19.1,0-36.1,14.1-41.2,34.3c-2.8,11-3.3,28.7,10.2,50.3c12.9,20.5,35.4,39.7,66.8,56.8c0.2,0.1,0.4,0.1,0.6,0
				c31.5-17.2,54-36.3,66.8-56.8c13.6-21.6,13-39.3,10.2-50.3c-5.2-20.2-22.1-34.3-41.3-34.3c-12.5,0-23.8,6-32.6,17.3
				c-0.9,1.1-2.2,1.7-3.6,1.7l0,0c-1.4,0-2.7-0.6-3.6-1.7C408.6,232.8,397.3,226.8,384.8,226.8z"/>
		</g>
	</g>
	<g>
		<path d="M418.2,314.9L418.2,314.9c-2,0-3.7-1.3-4.3-3.2c-4.3-14.2-9.2-29.6-12.5-38.7l-7,15.4c-0.7,1.6-2.3,2.6-4.1,2.6H367
			c-2.5,0-4.5-2-4.5-4.5s2-4.5,4.5-4.5h20.4l9.8-21.6c0.7-1.6,2.3-2.6,4.1-2.6h0.1c3.7,0,5.1,3.4,7.8,10.5c1.5,4.1,3.4,9.7,5.7,16.7
			c1.1,3.5,2.3,7,3.3,10.2c1-3.2,2.1-6.7,3.3-10.2c2.3-7,4.2-12.7,5.8-16.7c2.6-7,4.1-10.4,7.8-10.4l0,0c1.9,0,3.5,1.2,4.2,2.9
			l12.5,32.9H472c2.5,0,4.5,2,4.5,4.5s-2,4.5-4.5,4.5h-23.3c-1.9,0-3.5-1.2-4.2-2.9l-9.8-25.8c-3.3,9.2-8.1,24-12.2,37.7
			C422,313.6,420.2,314.9,418.2,314.9z"/>
	</g>
</g>
</svg>
